# xmcd
#
# Track frame offsets: 
#        150
#        16123
#        29417
#        45167
#        52011
#        64032
#        76722
#        88503
#        99305
#        113188
#        130545
#        143374
#        160207
#        174592
#        191051
#        199978
#        212396
#        227240
#        237187
#
# Disc length: 3318 seconds
#
# Revision: 2
# Processed by: cddbd v1.5.2PL0 Copyright (c) Steve Scherf et al.
# Submitted via: ExactAudioCopy v0.95b3
#
DISCID=e90cf413
DTITLE=Various Artist - All Star Jam
DYEAR=2001
DGENRE=Country
TTITLE0=Kris Kristofferson - Me And Bobby McGee
TTITLE1=Glen Campbell and Kris Kristofferson - The Highwayman
TTITLE2=Willie Nelson - Georgia
TTITLE3=Willie Nelson - Linda
TTITLE4=The Geezinslaws - On The Street Where You Live
TTITLE5=Gene Watson - Memories To Burn
TTITLE6=Mel Tillis - Ruby, Don't Take Your Love To Town
TTITLE7=Mickey Gilley - You Don't Know Me
TTITLE8=Bobby Bare - Detroit City
TTITLE9=Janie Fricke - Always Have, Always Will
TTITLE10=Porter Wagner - Misery Loves Company
TTITLE11=Lorrie Morgan - Fly Me To The Moon (In Other Words)
TTITLE12=B.J. Thomas - I Just Can't Help Believing
TTITLE13=Kris Kristofferson - For The Good Times
TTITLE14=Billy Joe Shaver - I'm Just An Old Chunk Of Coal
TTITLE15=Glen Campbell - Galveston
TTITLE16=Crystal Gayle - I'll Get Over You
TTITLE17=George Lindsey - What Mayberry Means To Me
TTITLE18=Kris Kristofferson - Here Comes That Rainbow Again
EXTD=
EXTT0=
EXTT1=
EXTT2=
EXTT3=
EXTT4=
EXTT5=
EXTT6=
EXTT7=
EXTT8=
EXTT9=
EXTT10=
EXTT11=
EXTT12=
EXTT13=
EXTT14=
EXTT15=
EXTT16=
EXTT17=
EXTT18=
PLAYORDER=
